<?xml version="1.0" encoding="UTF-8" standalone="no"?>
<!-- Created with Inkscape (http://www.inkscape.org/) -->

<svg
   width="289.69904mm"
   height="41.164211mm"
   viewBox="0 0 289.69904 41.164211"
   version="1.1"
   id="svg1"
   xml:space="preserve"
   inkscape:version="1.3 (0e150ed6c4, 2023-07-21)"
   sodipodi:docname="Echo Blvd Banner.svg"
   inkscape:export-filename="Echo Blvd Logo.png"
   inkscape:export-xdpi="96"
   inkscape:export-ydpi="96"
   xmlns:inkscape="http://www.inkscape.org/namespaces/inkscape"
   xmlns:sodipodi="http://sodipodi.sourceforge.net/DTD/sodipodi-0.dtd"
   xmlns="http://www.w3.org/2000/svg"
   xmlns:svg="http://www.w3.org/2000/svg"><sodipodi:namedview
     id="namedview1"
     pagecolor="#ffffff"
     bordercolor="#000000"
     borderopacity="0.25"
     inkscape:showpageshadow="2"
     inkscape:pageopacity="0.0"
     inkscape:pagecheckerboard="0"
     inkscape:deskcolor="#d1d1d1"
     inkscape:document-units="mm"
     inkscape:zoom="2"
     inkscape:cx="482.75"
     inkscape:cy="342.5"
     inkscape:window-width="3840"
     inkscape:window-height="2036"
     inkscape:window-x="-12"
     inkscape:window-y="-12"
     inkscape:window-maximized="1"
     inkscape:current-layer="layer1" /><defs
     id="defs1"><rect
       x="185.89481"
       y="196.71407"
       width="419.00098"
       height="88.029549"
       id="rect1" /></defs><g
     inkscape:label="Layer 1"
     inkscape:groupmode="layer"
     id="layer1"
     transform="translate(-4.9113321,-5.0555052)"><ellipse
       style="display:none;fill:none;fill-opacity:1;stroke:#c7b993;stroke-width:1.234;stroke-dasharray:none;stroke-opacity:1"
       id="path4-1"
       ry="69.442192"
       rx="71.80661"
       cy="142.9519"
       cx="103.24049"
       inkscape:label="circle" /><ellipse
       style="display:none;fill:none;fill-opacity:1;stroke:#c7b993;stroke-width:0.892912;stroke-dasharray:none;stroke-opacity:1"
       id="path4-1-8"
       ry="50.247791"
       rx="51.958668"
       cy="142.63669"
       cx="102.90883"
       inkscape:label="circle" /><ellipse
       style="fill:none;fill-opacity:1;stroke:#c7b993;stroke-width:0.362527;stroke-dasharray:none;stroke-opacity:1"
       id="path4"
       ry="20.400843"
       rx="21.095467"
       cy="25.637611"
       cx="148.5"
       inkscape:label="circle" /><path
       style="fill:#c7b993;fill-opacity:1;stroke:#c7b993;stroke-width:0.362527;stroke-dasharray:none;stroke-opacity:1"
       d="m 166.1952,26.921629 c 0,0 -3.93191,-0.130165 -4.51198,-0.153363 -0.31165,-0.01247 -0.66259,0.500966 -1.1908,1.011002 -0.39314,0.379615 -2.12232,2.591026 -2.42485,2.44621 -0.26686,-0.127739 -0.37218,-0.517967 -0.37218,-0.517967 l -1.15516,-3.951524 c -0.43601,-1.417532 -0.58771,-2.054162 -1.21213,-3.992747 -0.34132,1.5314 -0.59694,4.086742 -0.88188,5.670813 -0.39654,2.172286 -1.15901,9.496098 -1.66586,9.786153 -0.50685,0.290055 -0.60481,0.354422 -1.01254,0.07154 -0.40773,-0.282892 -0.61324,-2.175407 -0.61324,-2.175407 0,0 -0.34257,-2.153956 -0.56443,-4.191743 -0.22186,-2.037787 -0.85473,-8.123186 -0.85473,-8.123186 l -0.69211,-8.841119 c -0.53054,2.697416 -0.74063,5.028791 -1.03816,7.758305 l -0.97118,10.136028 -0.42648,3.924673 c 0,0 -0.53796,3.061005 -0.8126,3.046795 -0.27464,-0.01422 -0.65248,-1.04941 -0.91518,-3.198207 -0.2627,-2.148792 -0.97099,-9.828351 -0.97099,-9.828351 -0.10047,-1.609361 -0.56532,-8.420691 -0.89331,-7.838377 -0.328,0.582314 -1.13413,6.980538 -1.2899,7.918545 -0.16572,0.89926 -0.75989,5.331387 -1.05773,5.367552 -0.29784,0.03616 -1.47498,-3.255682 -1.95758,-4.767651 -0.36077,-1.12553 -0.59167,-1.958342 -0.88406,-1.926005 -0.40549,0.04484 -0.82276,1.538971 -1.2156,1.862862 -0.39284,0.323891 -0.69462,0.597538 -1.49975,0.631475 -1.60047,-0.0015 -4.30983,-0.09472 -4.30983,-0.09472 0,0 4.19987,0.09084 5.19389,-0.473605 1.35147,-0.767153 1.13208,-2.701211 2.00494,-2.36806 0.35058,0.13381 0.64441,1.039408 1.6892,4.278255 0.78996,2.448869 0.98875,2.972348 1.21559,0.631475 0.22685,-2.340868 0.68173,-4.620684 0.97879,-7.246191 0,0 0.56788,-4.323729 1.10046,-4.44014 0.53259,-0.116416 0.93472,2.344062 1.04656,3.129827 0.11185,0.785765 0.67818,6.860768 0.67818,6.860768 l 0.51938,5.923921 0.51555,4.574294 0.60757,-8.344657 0.8836,-10.561441 c 0.20726,-1.136173 0.2326,-5.202231 1.39354,-6.088329 0.25428,-0.147462 0.32224,-0.08452 0.67237,0.08958 1.3028,0.941157 1.17415,3.448438 1.3119,4.861845 l 0.56179,9.623283 c 0.21575,2.449311 0.53231,7.066103 1.0389,9.4303 0.25153,-0.597227 0.19809,-0.322571 0.93114,-5.668201 0.19446,-1.111195 0.91375,-5.610445 1.30668,-8.352335 0,0 0.0471,-1.668685 0.63921,-1.921701 0.59208,-0.253016 0.79368,0.103832 0.86103,0.349054 0.89655,3.264666 1.38908,5.602826 1.68182,6.583783 l 0.55592,1.819839 c 0,0 2.80914,-2.913441 3.24647,-2.928976 0.28219,-0.01005 3.15961,0.116809 4.75977,0.20583 z"
       id="path8"
       sodipodi:nodetypes="cssscccczzczccccczzczczzszsczsszczzccccczzccccczsccsc"
       inkscape:label="waveform" /><text
       xml:space="preserve"
       style="font-size:48.9448px;fill:#c7b993;fill-opacity:1;stroke:#c7b993;stroke-width:0.25492;stroke-opacity:1"
       x="1.6463068"
       y="42.212788"
       id="text1"
       transform="scale(0.96323185,1.0381717)"><tspan
         sodipodi:role="line"
         id="tspan1"
         style="font-style:normal;font-variant:normal;font-weight:bold;font-stretch:normal;font-size:48.9448px;font-family:'Trebuchet MS';-inkscape-font-specification:'Trebuchet MS Bold';fill:#c7b993;fill-opacity:1;stroke-width:0.25492"
         x="1.6463068"
         y="42.212788">ECHO</tspan></text><text
       xml:space="preserve"
       style="font-style:normal;font-variant:normal;font-weight:bold;font-stretch:normal;font-size:51.3948px;font-family:'Trebuchet MS';-inkscape-font-specification:'Trebuchet MS Bold';fill:#c7b993;fill-opacity:1;stroke:#c7b993;stroke-width:0.267681;stroke-opacity:1"
       x="172.89662"
       y="44.234264"
       id="text2"
       transform="scale(1.0117924,0.98834507)"><tspan
         sodipodi:role="line"
         id="tspan2"
         style="font-size:51.3948px;stroke-width:0.267681"
         x="172.89662"
         y="44.234264">BLVD</tspan></text></g></svg>
